<?xml version="1.0" encoding="UTF-8" standalone="no"?>
<svg
   xmlns:dc="http://purl.org/dc/elements/1.1/"
   xmlns:cc="http://creativecommons.org/ns#"
   xmlns:rdf="http://www.w3.org/1999/02/22-rdf-syntax-ns#"
   xmlns:svg="http://www.w3.org/2000/svg"
   xmlns="http://www.w3.org/2000/svg"
   version="1.1"
   id="svg74121"
   viewBox="0 0 61.290931 59.003752"
   height="16.65217mm"
   width="17.297663mm">
  <defs
     id="defs74123" />
  <metadata
     id="metadata74126">
    <rdf:RDF>
      <cc:Work
         rdf:about="">
        <dc:format>image/svg+xml</dc:format>
        <dc:type
           rdf:resource="http://purl.org/dc/dcmitype/StillImage" />
        <dc:title></dc:title>
      </cc:Work>
    </rdf:RDF>
  </metadata>
  <g
     transform="translate(907.78827,-160.00319)"
     id="layer1">
    <path
       d="m -861.23864,187.50194 c -0.14625,-0.16875 -0.32375,-0.315 -0.55875,-0.37 -0.3925,-0.11125 -0.785,0.0238 -1.0625,0.27875 -6.25875,-0.725 -11.1375,-6.05375 -11.1375,-12.5125 0,-6.95125 5.6525,-12.6 12.60125,-12.6 6.96125,0 12.615,5.64875 12.615,12.6 -0.0125,6.905 -5.575,12.5125 -12.4575,12.60375 m -22.28125,29.02125 c -12.3575,-7.53375 -20.50625,-21.56875 -21.915,-37.7975 6.525,-3.4575 14.09,-5.2825 21.915,-5.2825 2.44875,0 4.87875,0.215 7.27375,0.5725 -0.0225,0.28875 -0.0462,0.5825 -0.0462,0.8825 0,7.4325 5.46125,13.58625 12.58125,14.7075 -3.42375,11.525 -10.53125,21.25375 -19.80875,26.9175 m 37.0225,-41.625 c 0,-8.21375 -6.6825,-14.895 -14.89875,-14.895 -7.12875,0 -13.09375,5.03625 -14.55,11.74125 -2.495,-0.37 -5.02375,-0.59375 -7.57375,-0.59375 -8.47375,0 -16.66625,2.04625 -23.6725,5.91875 -0.3925,0.2125 -0.6275,0.64 -0.5925,1.08625 1.31,17.54875 10.1625,32.76 23.6825,40.69375 0.17875,0.1 0.37875,0.1575 0.5825,0.1575 0.2,0 0.4,-0.0575 0.58125,-0.1575 10.17375,-5.97625 17.9525,-16.53 21.55375,-29.055 8.215,0 14.8875,-6.68125 14.8875,-14.89625 m -7.9475,5.6875 c 0.23375,0.2125 0.36875,0.5475 0.36875,1.0175 0,0.46875 -0.18875,0.85125 -0.55875,1.1325 -0.37,0.265 -0.87375,0.4125 -1.5125,0.4125 -0.625,0 -1.12875,-0.1475 -1.48625,-0.43625 -0.3475,-0.29125 -0.54,-0.71625 -0.57,-1.2675 l 1.00375,0 c 0.0125,0.27 0.1125,0.4825 0.29375,0.6275 0.17625,0.13625 0.435,0.2125 0.75875,0.2125 0.33875,0 0.605,-0.0537 0.785,-0.16625 0.19,-0.1 0.29,-0.24625 0.29,-0.4375 0,-0.19 -0.0662,-0.33625 -0.20125,-0.425 -0.135,-0.0875 -0.42375,-0.18 -0.85,-0.28125 -0.795,-0.165 -1.33375,-0.36875 -1.59875,-0.57 -0.27,-0.21125 -0.405,-0.52375 -0.405,-0.96125 0,-0.49375 0.18125,-0.87375 0.5275,-1.16375 0.3575,-0.28125 0.8275,-0.4275 1.43375,-0.4275 0.57,0 1.01625,0.14625 1.37375,0.45125 0.3575,0.28875 0.55125,0.6925 0.59375,1.185 l -1.0175,0 c -0.0225,-0.235 -0.135,-0.42625 -0.32625,-0.57 -0.19,-0.135 -0.43625,-0.2025 -0.73625,-0.2025 -0.27,0 -0.4825,0.0575 -0.6275,0.1675 -0.1575,0.12375 -0.22375,0.28125 -0.22375,0.49375 0,0.14625 0.0663,0.26625 0.235,0.34625 0.155,0.0775 0.48125,0.1775 0.9825,0.29 0.7275,0.16875 1.22,0.3575 1.4675,0.5725 m -5.685,-0.5725 c -0.135,0.11125 -0.335,0.16875 -0.605,0.16875 l -1.22,0 0,-1.3325 1.255,0 c 0.255,0 0.45875,0.0575 0.58125,0.16875 0.135,0.1125 0.19,0.2675 0.19,0.4925 0,0.23625 -0.0663,0.39 -0.20125,0.5025 m 1.10875,2.3525 -0.0225,-0.8275 c -0.0125,-0.405 -0.1575,-0.685 -0.45,-0.8525 -0.0437,-0.045 -0.10125,-0.0575 -0.16625,-0.0875 0.1125,-0.0475 0.2125,-0.0925 0.30125,-0.1475 0.32625,-0.2225 0.48125,-0.58 0.48125,-1.0625 0,-0.415 -0.135,-0.75125 -0.43625,-1.00875 -0.29125,-0.2575 -0.67,-0.38125 -1.15125,-0.38125 l -2.54125,0 0,5.01375 1.05125,0 0,-1.98 1.0525,0 c 0.29125,0 0.515,0.0438 0.6375,0.13625 0.12375,0.1 0.19,0.2575 0.2,0.49125 l 0,0.47 c 0.0125,0.19 0.0237,0.37875 0.0362,0.54875 0.0337,0.1675 0.0575,0.28 0.0762,0.33375 l 1.155,0 0,-0.145 c -0.08,-0.0312 -0.135,-0.0888 -0.1575,-0.155 -0.0462,-0.0687 -0.0575,-0.18125 -0.0662,-0.34625 m -5.54113,-4.37875 0.5275,0 0,5.025 -1.055,0 0,-2.27125 -1.95625,0 0,2.27125 -1.05125,0 0,-5.025 1.05125,0 0,1.88375 1.95625,0 0,-1.88375 0.5275,0 z m 4.89125,-5.24875 0.0888,-0.135 2.36125,-3.92875 0,4.06375 -2.45,0 z m 2.45,3.67375 1.8825,0 0,-2.15 1.105,0 0,-1.52375 -1.105,0 0,-6.0775 -2.1375,0 -3.605,5.9425 0,1.65875 3.86,0 0,2.15 z m -4.845,0 -6.6475,0 c 0,-0.8975 0.235,-1.65875 0.68125,-2.29625 0.4475,-0.63875 1.2875,-1.38875 2.5425,-2.27125 0.54625,-0.38125 0.94,-0.73875 1.17375,-1.06375 0.23625,-0.32625 0.33625,-0.68375 0.33625,-1.07375 0,-0.43875 -0.12375,-0.79625 -0.37,-1.05125 -0.2475,-0.2575 -0.58125,-0.39375 -0.9975,-0.39375 -0.435,0 -0.77,0.1575 -1.0175,0.49375 -0.24625,0.335 -0.3575,0.7825 -0.34625,1.34125 l -1.8675,0 c -0.0337,-1.0525 0.23375,-1.8925 0.8275,-2.51625 0.59375,-0.61625 1.38625,-0.92 2.42625,-0.92 0.96375,0 1.74875,0.28125 2.3525,0.8525 0.61375,0.56875 0.90625,1.30875 0.90625,2.205 0,0.7475 -0.17,1.3525 -0.51625,1.845 -0.3475,0.4825 -0.99375,1.03125 -1.945,1.63375 -0.87375,0.56125 -1.47875,1.065 -1.8025,1.5125 l 0,0.0225 4.26375,0 0,1.68 z m -10.56375,19.92 -6.2575,0 c -0.64,0 -1.1525,0.51375 -1.1525,1.14125 l 0,6.25625 -6.96125,0 0,-6.25625 c 0,-0.6275 -0.51625,-1.14125 -1.14375,-1.14125 l -6.26625,0 0,-6.97375 6.26625,0 c 0.6275,0 1.14375,-0.50375 1.14375,-1.14 l 0,-6.2575 6.96125,0 0,6.2575 c 0,0.625 0.5125,1.14 1.1525,1.14 l 6.2575,0 0,6.97375 z m 1.14,-9.26875 -6.2575,0 0,-6.2425 c 0,-0.63875 -0.5125,-1.155 -1.14,-1.155 l -9.2575,0 c -0.63625,0 -1.15125,0.51625 -1.15125,1.155 l 0,6.2425 -6.255,0 c -0.6275,0 -1.1425,0.5275 -1.1425,1.155 l 0,9.255 c 0,0.63875 0.515,1.14375 1.1425,1.14375 l 6.255,0 0,6.265 c 0,0.6275 0.515,1.1425 1.15125,1.1425 l 9.2575,0 c 0.6275,0 1.14,-0.515 1.14,-1.1425 l 0,-6.265 6.2575,0 c 0.64,0 1.1525,-0.505 1.1525,-1.14375 l 0,-9.255 c 0,-0.6275 -0.5125,-1.155 -1.1525,-1.155"
       style="fill:#625e59;fill-opacity:1;fill-rule:nonzero;stroke:none"
       id="path9986-6-0" />
  </g>
</svg>
