<?xml version="1.0" encoding="UTF-8" standalone="no"?>
<svg
   xmlns:dc="http://purl.org/dc/elements/1.1/"
   xmlns:cc="http://creativecommons.org/ns#"
   xmlns:rdf="http://www.w3.org/1999/02/22-rdf-syntax-ns#"
   xmlns:svg="http://www.w3.org/2000/svg"
   xmlns="http://www.w3.org/2000/svg"
   version="1.1"
   id="svg72945"
   viewBox="0 0 61.291222 47.633751"
   height="13.443303mm"
   width="17.297745mm">
  <defs
     id="defs72947" />
  <metadata
     id="metadata72950">
    <rdf:RDF>
      <cc:Work
         rdf:about="">
        <dc:format>image/svg+xml</dc:format>
        <dc:type
           rdf:resource="http://purl.org/dc/dcmitype/StillImage" />
        <dc:title></dc:title>
      </cc:Work>
    </rdf:RDF>
  </metadata>
  <g
     transform="translate(1050.6469,200.026)"
     id="layer1">
    <path
       d="m -997.37313,-176.8836 c 0.12875,0.0687 0.26625,0.1 0.40125,0.1 0.32875,0 0.64625,-0.19125 0.8025,-0.525 0.2225,-0.47 0.0425,-1.04125 -0.4,-1.275 -2.08625,-1.10375 -5.99622,-1.1175 -6.16252,-1.1175 -0.495,0 -0.8975,0.42625 -0.8975,0.95125 0,0.525 0.4025,0.95125 0.8975,0.95125 1.01,0 3.93877,0.1625 5.35877,0.915"
       style="fill:#625e59;fill-opacity:1;fill-rule:nonzero;stroke:none"
       id="path9958-6-4" />
    <path
       d="m -1000.0556,-166.62485 c 0.0687,0 0.13747,0 0.20622,0 0.68125,0 1.3475,-0.10875 1.98,-0.3175 l 0,0.38375 c 0,0.18875 0.0225,0.37375 0.065,0.55375 l -2.0475,2.16625 -2.03752,-2.15625 c 0.036,-0.17125 0.056,-0.3575 0.056,-0.565 l 0,-0.40125 c 0.565,0.1975 1.16,0.3125 1.7775,0.3325 m -4.6588,-7.3 0,-1.77625 c 0,-0.1475 -0.031,-0.29375 -0.094,-0.42625 l -0.555,-1.17375 c -0.2025,-0.43 -0.31,-0.91125 -0.31,-1.39125 l 0,-0.0575 c 0,-2.2775 1.75,-4.13125 3.9012,-4.13125 l 7.74252,0 0,3.9475 c 0,0.63875 -0.1425,1.2775 -0.4125,1.8475 l -0.4525,0.95875 c -0.0625,0.13375 -0.095,0.27875 -0.095,0.42625 l 0,2.0325 c 0,1.40375 -0.525,2.715 -1.47625,3.69375 -0.9525,0.9775 -2.20875,1.49375 -3.53627,1.45 -2.5987,-0.0825 -4.7125,-2.50375 -4.7125,-5.4 m -11.5312,10.89125 c 0,0.0125 -0.016,0.0275 -0.046,0.0288 -0.029,0 -0.044,-0.0125 -0.05,-0.0175 l -2.2462,-2.37875 4.235,-3.065 0.9,0.99875 -2.7925,4.43375 z m -7.39,0.0125 c 0,0.0125 -0.02,0.0212 -0.049,0.0175 -0.03,0 -0.041,-0.02 -0.046,-0.0288 l -2.7925,-4.43375 0.8987,-0.99875 4.2363,3.065 -2.2475,2.37875 z m 2.95,-7.68875 c 0.2375,0.0175 0.4725,0.025 0.7062,0.025 1.7175,0 3.3688,-0.435 4.8525,-1.25875 l 0,1.73625 -4.8612,3.5175 -4.8625,-3.5175 0,-1.77375 c 1.2587,0.72 2.6662,1.16875 4.165,1.27125 m -8.005,-11.43625 0,-2.3575 c 0,-0.1425 -0.03,-0.28375 -0.089,-0.41375 -0.5775,-1.265 -0.8712,-2.61 -0.8712,-3.99375 l 0,-2.0325 c 0,-3.95875 3.0425,-7.17875 6.7825,-7.17875 l 12.5412,0 0,9.21125 c 0,1.38375 -0.2925,2.72875 -0.87,3.99375 -0.059,0.13 -0.09,0.27125 -0.09,0.41375 l 0,2.70625 c 0,2.57375 -0.9775,4.96125 -2.7525,6.72125 -0.2212,0.22125 -0.4512,0.42625 -0.6887,0.61875 0,0 -0.012,0.0125 -0.015,0.0125 -1.6638,1.3375 -3.6988,1.98625 -5.8263,1.84125 -4.5537,-0.3125 -8.1212,-4.50375 -8.1212,-9.54125 m -13.7825,17.98875 -0.835,-0.84 c 0.1412,-0.28 0.2187,-0.59625 0.2187,-0.9275 l 0,-1.01375 c 0.6263,0.20625 1.2913,0.31875 1.9825,0.31875 0.6888,0 1.3538,-0.1125 1.9813,-0.31875 l 0,1.01375 c 0,0.33125 0.078,0.6475 0.2175,0.9275 l -0.8338,0.84 c -0.7662,0.77 -1.9662,0.77 -2.7312,0 m -5.2938,-4.53 c 0.245,-0.67875 0.4038,-1.45625 0.5113,-2.2775 0.4962,1.2575 1.325,2.33125 2.37,3.09625 l 0,1.13875 c -1.68,-0.64 -2.5213,-1.4925 -2.8813,-1.9575 m 0.835,-7.9625 c 0.115,-1.7075 0.7588,-3.28125 1.815,-4.43 1.065,-1.16 2.4888,-1.8 4.01,-1.8 1.52,0 2.9438,0.64 4.0088,1.8 1.055,1.14875 1.7,2.7225 1.815,4.43 0.035,0.53 0.055,1.14625 0.075,1.80125 10e-4,0.0563 0,0.1125 0,0.17 -0.9763,-1.59375 -2.485,-2.7675 -4.435,-3.43 -1.8,-0.61375 -3.3488,-0.575 -3.4138,-0.57375 -0.235,0.0125 -0.4587,0.11 -0.6225,0.29 l -1.6187,1.77875 c -0.345,0.37875 -0.335,0.97875 0.023,1.34375 0.3575,0.36375 0.925,0.3525 1.27,-0.025 l 1.3475,-1.47875 c 1.1612,0.06 4.895,0.52 6.3475,3.905 -0.365,2.495 -2.3913,4.3475 -4.8013,4.3475 -2.6812,0 -4.8625,-2.30875 -4.8625,-5.14625 0,-0.525 -0.4025,-0.95125 -0.8975,-0.95125 -0.05,0 -0.1,0 -0.1475,0.0138 0,-0.0813 0,-0.16375 0.012,-0.24375 0.02,-0.65375 0.04,-1.27125 0.075,-1.80125 m 9.6025,9.92375 0,-1.13375 c 1.0438,-0.7625 1.875,-1.8325 2.37,-3.09875 0.1075,0.81875 0.2663,1.59375 0.5113,2.27125 -0.3575,0.46125 -1.205,1.32125 -2.8813,1.96125 m 45.23502,1.675 -3.7075,-1.1225 c -0.16,-0.0475 -0.27125,-0.205 -0.27125,-0.38 l 0,-1.31 c 0.30125,-0.2225 0.58875,-0.47 0.8575,-0.74625 1.30375,-1.33875 2.02125,-3.13625 2.02125,-5.05875 l 0,-1.8075 0.35875,-0.7575 c 0.39375,-0.83375 0.60125,-1.7675 0.60125,-2.69875 l 0,-4.8975 c 0,-0.525 -0.40125,-0.95 -0.8975,-0.95 l -8.64002,0 c -3.1412,0 -5.6975,2.70625 -5.6975,6.03125 l 0,0.0563 c 0,0.775 0.1738,1.55 0.5,2.24375 l 0.46,0.9725 0,1.5525 c 0,2.46 1.145,4.66875 2.88,5.99625 l 0,1.37375 c 0,0.21125 0,0.29875 -0.7412,0.52375 l -1.8088,0.54625 -5.2337,-2.01375 c 0.019,-0.2625 -0.065,-0.5275 -0.245,-0.7275 l -1.6725,-1.86125 0,-3.1225 c 0.1762,-0.155 0.3512,-0.3125 0.52,-0.47875 2.11,-2.09375 3.32,-5.05 3.32,-8.11 l 0,-2.49375 c 0.6362,-1.4675 0.96,-3.02125 0.96,-4.62 l 0,-10.16125 c 0,-0.525 -0.4025,-0.95125 -0.8988,-0.95125 l -13.4387,0 c -4.73,0 -8.5775,4.07375 -8.5775,9.08 l 0,2.0325 c 0,1.6 0.3225,3.1525 0.96,4.62 l 0,2.14625 c 0,3.5525 1.4925,6.7525 3.84,8.86375 l 0,3.195 -1.6725,1.86125 c -0.18,0.2 -0.2638,0.465 -0.245,0.7275 l -5.5238,2.12625 c -0.4,0.15375 -0.7725,0.3625 -1.11,0.615 l -0.8675,-0.45875 c 2.5825,-1.19 3.4,-2.86375 3.4388,-2.94625 0.1262,-0.2675 0.1262,-0.5825 0,-0.85 -0.6463,-1.37125 -0.725,-3.88375 -0.7888,-5.90125 -0.02,-0.67125 -0.04,-1.30625 -0.079,-1.87125 -0.305,-4.55875 -3.5788,-7.99625 -7.615,-7.99625 -4.035,0 -7.3088,3.4375 -7.615,7.99625 -0.038,0.565 -0.058,1.2 -0.079,1.87125 -0.062,2.01875 -0.1412,4.53 -0.7887,5.90125 -0.1263,0.2675 -0.1263,0.5825 0,0.85 0.04,0.0825 0.8562,1.7525 3.4425,2.94375 l -2.4088,1.27625 c -1.2887,0.68 -2.0887,2.05125 -2.0887,3.57625 l 0,7.02125 c 0,0.525 0.4025,0.95125 0.8987,0.95125 0.495,0 0.8975,-0.42625 0.8975,-0.95125 l 0,-7.02125 c 0,-0.8 0.42,-1.51875 1.095,-1.8775 l 3.0013,-1.5875 1.0425,1.05 c 0.73,0.73375 1.6662,1.10125 2.6025,1.10125 0.9362,0 1.8737,-0.3675 2.6025,-1.10125 l 1.0437,-1.05 0.9775,0.5175 c -0.46,0.78 -0.7212,1.69625 -0.7212,2.65375 l 0,7.315 c 0,0.525 0.4025,0.95125 0.8975,0.95125 0.4962,0 0.8975,-0.42625 0.8975,-0.95125 l 0,-7.315 c 0,-1.30375 0.7787,-2.48125 1.9375,-2.92625 l 5.8237,-2.2425 2.425,3.85 c 0.31,0.4925 0.8063,0.8075 1.3625,0.86625 0.061,0.0125 0.1238,0.0125 0.185,0.0125 0.4913,0 0.96,-0.205 1.3113,-0.57625 l 1.4787,-1.56625 0,9.9 c 0,0.525 0.4025,0.95125 0.8988,0.95125 0.4962,0 0.8975,-0.42625 0.8975,-0.95125 l 0,-9.9 1.4787,1.56625 c 0.3513,0.37125 0.8213,0.57625 1.3125,0.57625 0.061,0 0.1225,0 0.185,-0.0125 0.5563,-0.0588 1.0525,-0.37375 1.3625,-0.86625 l 2.425,-3.84875 5.8238,2.24125 c 1.1587,0.44625 1.9362,1.6225 1.9362,2.92625 l 0,7.315 c 0,0.525 0.4025,0.95125 0.8975,0.95125 0.4963,0 0.8988,-0.42625 0.8988,-0.95125 l 0,-7.315 c 0,-1.32125 -0.4963,-2.56 -1.3288,-3.4775 l 0.2225,-0.0662 c 0.2238,-0.0675 0.5288,-0.16 0.835,-0.31875 l 2.2925,2.42625 0,8.75125 c 0,0.525 0.4025,0.95125 0.89752,0.95125 0.49625,0 0.8975,-0.42625 0.8975,-0.95125 l 0,-8.75125 2.2775,-2.41 c 0.12,0.065 0.2475,0.12 0.38125,0.16 l 3.70875,1.1225 c 0.84625,0.255 1.4375,1.085 1.4375,2.0175 l 0,7.86125 c 0,0.525 0.40125,0.95125 0.8975,0.95125 0.49625,0 0.8975,-0.42625 0.8975,-0.95125 l 0,-7.86125 c 0,-1.7775 -1.12625,-3.35875 -2.74,-3.84625"
       style="fill:#625e59;fill-opacity:1;fill-rule:nonzero;stroke:none"
       id="path9962-7-4" />
    <path
       d="m -994.09188,-160.39185 c -0.495,0 -0.8975,0.425 -0.8975,0.95 l 0,6.0975 c 0,0.525 0.4025,0.95 0.8975,0.95 0.495,0 0.8975,-0.425 0.8975,-0.95 l 0,-6.0975 c 0,-0.525 -0.4025,-0.95 -0.8975,-0.95"
       style="fill:#625e59;fill-opacity:1;fill-rule:nonzero;stroke:none"
       id="path9966-6-1" />
    <path
       d="m -1045.9076,-159.13585 c -0.495,0 -0.8975,0.425 -0.8975,0.95 l 0,4.84125 c 0,0.525 0.4025,0.95125 0.8975,0.95125 0.4962,0 0.8975,-0.42625 0.8975,-0.95125 l 0,-4.84125 c 0,-0.525 -0.4013,-0.95 -0.8975,-0.95"
       style="fill:#625e59;fill-opacity:1;fill-rule:nonzero;stroke:none"
       id="path9970-4-9" />
    <path
       d="m -1025.8106,-189.0686 c 0,-0.0325 0.02,-0.0613 0.048,-0.065 1.1562,-0.18375 3.4537,-0.47 5.8325,-0.30125 2.8,0.1975 4.8275,0.94125 6.0275,2.21125 0.35,0.37 0.9187,0.37 1.27,0 0.35,-0.37125 0.35,-0.97375 0,-1.345 -3.3963,-3.59375 -10.5013,-2.90625 -13.3975,-2.445 -0.9138,0.1475 -1.5763,0.96375 -1.5763,1.945 l 0,2.18875 c 0,0.525 0.4025,0.95125 0.8988,0.95125 0.4962,0 0.8975,-0.42625 0.8975,-0.95125 l 0,-2.18875 z"
       style="fill:#625e59;fill-opacity:1;fill-rule:nonzero;stroke:none"
       id="path9974-7-1" />
    <path
       d="m -1030.5481,-158.35947 c -0.495,0 -0.8975,0.425 -0.8975,0.95 l 0,4.065 c 0,0.525 0.4025,0.95 0.8975,0.95 0.4962,0 0.8975,-0.425 0.8975,-0.95 l 0,-4.065 c 0,-0.525 -0.4013,-0.95 -0.8975,-0.95"
       style="fill:#625e59;fill-opacity:1;fill-rule:nonzero;stroke:none"
       id="path9978-4-5" />
    <path
       d="m -1009.4288,-158.35947 c -0.495,0 -0.8975,0.425 -0.8975,0.95 l 0,4.065 c 0,0.525 0.4025,0.95 0.8975,0.95 0.4963,0 0.8975,-0.425 0.8975,-0.95 l 0,-4.065 c 0,-0.525 -0.4012,-0.95 -0.8975,-0.95"
       style="fill:#625e59;fill-opacity:1;fill-rule:nonzero;stroke:none"
       id="path9982-4-5" />
  </g>
</svg>
