<?xml version="1.0" encoding="UTF-8" standalone="no"?>
<svg
   xmlns:dc="http://purl.org/dc/elements/1.1/"
   xmlns:cc="http://creativecommons.org/ns#"
   xmlns:rdf="http://www.w3.org/1999/02/22-rdf-syntax-ns#"
   xmlns:svg="http://www.w3.org/2000/svg"
   xmlns="http://www.w3.org/2000/svg"
   version="1.1"
   id="svg73539"
   viewBox="0 0 47.120186 65.61135"
   height="18.516981mm"
   width="13.298364mm">
  <defs
     id="defs73541" />
  <metadata
     id="metadata73544">
    <rdf:RDF>
      <cc:Work
         rdf:about="">
        <dc:format>image/svg+xml</dc:format>
        <dc:type
           rdf:resource="http://purl.org/dc/dcmitype/StillImage" />
        <dc:title></dc:title>
      </cc:Work>
    </rdf:RDF>
  </metadata>
  <g
     transform="translate(769.27413,249.0149)"
     id="layer1">
    <path
       d="m -729.3253,-188.85347 -1.31375,-1.31375 c 0.17125,-0.29625 0.2675,-0.6375 0.2675,-0.99625 l 0,-0.45875 2.18625,0 0,0.45875 c 0,0.35875 0.095,0.7 0.26625,0.99625 l -1.3125,1.31375 c -0.0263,0.0262 -0.0675,0.0262 -0.0937,0 m -3.10125,-9.8925 c 0,-1.17 0.95125,-2.12 2.12125,-2.12 l 2.05375,0 c 1.16875,0 2.12125,0.95 2.12125,2.12 l 0,2.05375 c 0,1.73625 -1.4125,3.1475 -3.1475,3.1475 -1.73625,0 -3.14875,-1.4125 -3.14875,-3.1475 l 0,-2.05375 z m -5.11625,-6.54125 -1.31375,-1.315 c 0.17125,-0.2975 0.26625,-0.6375 0.26625,-0.99625 l 0,-0.45875 2.1875,0 0,0.45875 c 0,0.35875 0.095,0.69875 0.26625,0.99625 l -1.31375,1.31375 c -0.025,0.0262 -0.0675,0.0262 -0.0925,0 m -5.41125,-1.05 c -1.0275,0.515 -1.66625,1.5475 -1.66625,2.6975 l 0,0.8525 c -0.0225,0 -0.0437,0 -0.0662,0 l -2.055,0 c -0.0225,0 -0.0438,0 -0.0663,0 l 0,-0.8525 c 0,-1.15 -0.63875,-2.1825 -1.66625,-2.6975 l -2.40625,-1.2025 c -0.0225,-0.0125 -0.0362,-0.035 -0.0362,-0.0588 l 0,-1.45625 c 1.24625,-0.92375 2.055,-2.40625 2.055,-4.0725 l 0,-2.05375 c 0,-1.50875 -0.82875,-2.82375 -2.055,-3.51875 l 0,-1.37625 c 0,-0.41625 0.2325,-0.79 0.60375,-0.9775 l 1.67,-0.835 1.5225,1.52375 c 0.375,0.37625 0.875,0.5825 1.40625,0.5825 0.53125,0 1.03,-0.20625 1.40625,-0.5825 l 1.5225,-1.52375 1.66875,0.835 c 0.37375,0.1875 0.605,0.56125 0.605,0.9775 l 0,1.37625 c -1.225,0.695 -2.055,2.01 -2.055,3.51875 l 0,2.05375 c 0,1.66625 0.81,3.14875 2.055,4.0725 l 0,1.45625 c 0,0.0237 -0.0137,0.0475 -0.0375,0.0588 l -2.405,1.2025 z m 0.3875,9.645 c 0,1.73625 -1.4125,3.1475 -3.1475,3.1475 -1.73625,0 -3.1475,-1.41125 -3.1475,-3.1475 l 0,-2.05375 c 0,-1.17 0.95125,-2.12 2.12,-2.12 l 2.055,0 c 1.16875,0 2.12,0.95 2.12,2.12 l 0,2.05375 z m -2.05375,5.07 0,0.45875 c 0,0.35875 0.095,0.7 0.26625,0.99625 l -1.31375,1.31375 c 0,0 -0.0187,0.02 -0.0462,0.02 -0.0275,0 -0.0425,-0.015 -0.0462,-0.02 l -1.31375,-1.31375 c 0.17125,-0.29625 0.26625,-0.6375 0.26625,-0.99625 l 0,-0.45875 2.1875,0 z m -9.35875,-13.665 -1.3125,-1.315 c 0.17125,-0.29625 0.26625,-0.6375 0.26625,-0.99625 l 0,-0.45875 2.18625,0 0,0.45875 c 0,0.35875 0.0963,0.7 0.2675,0.99625 l -1.31375,1.315 c -0.025,0.025 -0.0675,0.025 -0.0937,0 m -3.1,-9.89375 c 0,-1.17 0.95125,-2.12125 2.12,-2.12125 l 2.055,0 c 1.16875,0 2.12,0.95125 2.12,2.12125 l 0,2.05375 c 0,1.73625 -1.4125,3.1475 -3.1475,3.1475 -1.73625,0 -3.1475,-1.41125 -3.1475,-3.1475 l 0,-2.05375 z m 12.45875,-9.3125 0,0.45875 c 0,0.36 0.095,0.7 0.26625,0.99625 l -1.31375,1.31375 c 0,0 -0.0187,0.02 -0.0462,0.02 -0.0275,0 -0.0425,-0.015 -0.0462,-0.02 l -1.31375,-1.31375 c 0.17125,-0.295 0.26625,-0.63625 0.26625,-0.99625 l 0,-0.45875 2.1875,0 z m -4.24125,-7.12375 c 0,-1.16875 0.95125,-2.12 2.12,-2.12 l 2.055,0 c 1.16875,0 2.12,0.95125 2.12,2.12 l 0,2.055 c 0,1.735 -1.4125,3.14625 -3.1475,3.14625 -1.73625,0 -3.1475,-1.41125 -3.1475,-3.14625 l 0,-2.055 z m 12.3925,14.315 c 1.16875,0 2.12,0.95125 2.12,2.12125 l 0,2.05375 c 0,1.73625 -1.41125,3.1475 -3.1475,3.1475 -1.735,0 -3.1475,-1.41125 -3.1475,-3.1475 l 0,-2.05375 c 0,-1.17 0.95125,-2.12125 2.12125,-2.12125 l 2.05375,0 z m 0,-9.245 1.0275,0 c 0.6025,0 1.0925,0.49 1.0925,1.09375 0,0.6025 -0.49,1.0925 -1.0925,1.0925 l -1.0275,0 c -0.6025,0 -1.09375,-0.49 -1.09375,-1.0925 0,-0.60375 0.49125,-1.09375 1.09375,-1.09375 m -22.5325,29.855 c 0,1.73625 -1.4125,3.1475 -3.1475,3.1475 -1.73625,0 -3.1475,-1.41125 -3.1475,-3.1475 l 0,-2.05375 c 0,-1.17 0.95,-2.12 2.12,-2.12 l 2.055,0 c 1.16875,0 2.12,0.95 2.12,2.12 l 0,2.05375 z m -2.055,5.07 0,0.45875 c 0,0.35875 0.0963,0.7 0.2675,0.99625 l -1.31375,1.31375 c 0,0 -0.0187,0.02 -0.0462,0.02 -0.0275,0 -0.0425,-0.015 -0.0475,-0.02 l -1.31375,-1.31375 c 0.1725,-0.29625 0.2675,-0.6375 0.2675,-0.99625 l 0,-0.45875 2.18625,0 z m 37.235,1.72 -2.405,-1.2025 c -0.0225,-0.0125 -0.0362,-0.0337 -0.0362,-0.0587 l 0,-1.45625 c 1.245,-0.92375 2.05375,-2.405 2.05375,-4.0725 l 0,-2.05375 c 0,-2.22875 -1.8125,-4.0425 -4.0425,-4.0425 l -2.05375,0 c -0.0225,0 -0.045,0.001 -0.0662,0.001 l 0,-0.8525 c 0,-1.15 -0.63875,-2.18375 -1.6675,-2.6975 l -2.405,-1.2025 c -0.0225,-0.0125 -0.0375,-0.035 -0.0375,-0.06 l 0,-1.455 c 1.24625,-0.92375 2.055,-2.40625 2.055,-4.0725 l 0,-2.05375 c 0,-1.89875 -1.315,-3.495 -3.08125,-3.9275 l 0,-3.33 0.065,0 c 1.66375,0 3.01625,-1.3525 3.01625,-3.015 0,-1.6625 -1.3525,-3.01625 -3.01625,-3.01625 l -0.065,0 0,-16.5675 10.8375,0 -1.35875,2.71875 c -0.13625,0.26875 -0.13625,0.5875 0,0.85875 l 1.35875,2.71875 -7.69,0 c -0.53125,0 -0.96125,0.43 -0.96125,0.96 0,0.53125 0.43,0.96125 0.96125,0.96125 l 9.245,0 c 0.3325,0 0.6425,-0.1725 0.8175,-0.455 0.175,-0.28375 0.19125,-0.6375 0.0425,-0.935 l -1.84,-3.68 1.84,-3.67875 c 0.14875,-0.2975 0.1325,-0.6525 -0.0425,-0.935 -0.175,-0.28375 -0.485,-0.45625 -0.8175,-0.45625 l -12.3925,0 0,-1.0925 c -3.8e-4,-0.53123 -0.43038,-0.96123 -0.96163,-0.96123 -0.53125,0 -0.96125,0.43 -0.96125,0.96125 l 0,19.74125 c -1.1925,0.40125 -2.05375,1.53 -2.05375,2.8575 0,1.32625 0.86125,2.455 2.05375,2.8575 l 0,3.37125 -1.0925,0 c -0.0225,0 -0.045,0 -0.0675,0 l 0,-0.8525 c 0,-1.14875 -0.6375,-2.1825 -1.66625,-2.69625 l -2.405,-1.20375 c -0.0225,-0.0125 -0.0375,-0.0337 -0.0375,-0.0588 l 0,-1.45625 c 1.24625,-0.92375 2.055,-2.405 2.055,-4.07125 l 0,-2.055 c 0,-2.22875 -1.81375,-4.0425 -4.0425,-4.0425 l -2.055,0 c -2.22875,0 -4.0425,1.81375 -4.0425,4.0425 l 0,2.055 c 0,1.66625 0.80875,3.1475 2.055,4.07125 l 0,1.45625 c 0,0.025 -0.015,0.0488 -0.0375,0.0588 l -2.405,1.20375 c -1.02875,0.51375 -1.6675,1.5475 -1.6675,2.69625 l 0,0.8525 c -0.0213,0 -0.0438,0 -0.065,0 l -2.055,0 c -2.23,0 -4.0425,1.81375 -4.0425,4.04375 l 0,2.05375 c 0,1.66625 0.80875,3.14875 2.05375,4.0725 l 0,1.45625 c 0,0.0238 -0.0138,0.0475 -0.0362,0.0588 l -2.405,1.20375 c -1.02875,0.51375 -1.6675,1.54625 -1.6675,2.69625 l 0,0.85375 c -0.0213,0 -0.0438,0 -0.065,0 l -2.055,0 c -2.23,0 -4.0425,1.81375 -4.0425,4.0425 l 0,2.05375 c 0,1.6675 0.80875,3.14875 2.05375,4.0725 l 0,1.45625 c 0,0.0263 -0.0138,0.0475 -0.0362,0.0588 l -2.405,1.20375 c -1.02875,0.51375 -1.6675,1.54625 -1.6675,2.69625 l 0,2.84 c 0,0.53125 0.43,0.96 0.96125,0.96 0.53,0 0.96125,-0.42875 0.96125,-0.96 l 0,-2.84 c 0,-0.4175 0.23113,-0.79125 0.605,-0.9775 l 1.66738,-0.835 1.52387,1.52375 c 0.375,0.37625 0.87363,0.5825 1.40625,0.5825 0.53125,0 1.02988,-0.20625 1.405,-0.5825 l 1.5225,-1.52375 1.67,0.835 c 0.3725,0.18625 0.60375,0.56 0.60375,0.9775 l 0,2.84 c 0,0.53125 0.43125,0.96 0.96125,0.96 0.53113,0 0.96113,-0.42875 0.96113,-0.96 l 0,-2.84 c 0,-1.15 -0.63863,-2.1825 -1.66738,-2.6975 l -2.405,-1.2025 c -0.0225,-0.0125 -0.0362,-0.0337 -0.0362,-0.0588 l 0,-1.45625 c 1.245,-0.92375 2.05375,-2.405 2.05375,-4.0725 l 0,-2.05375 c 0,-1.50625 -0.82875,-2.8225 -2.05375,-3.51875 l 0,-1.375 c 0,-0.41625 0.23125,-0.79125 0.60375,-0.9775 l 1.66875,-0.835 1.52375,1.5225 c 0.3875,0.38875 0.89625,0.58125 1.405,0.58125 0.51,0 1.01875,-0.1925 1.40625,-0.58125 l 1.52375,-1.5225 1.66875,0.835 c 0.3725,0.18625 0.605,0.56125 0.605,0.9775 l 0,1.375 c -1.22625,0.69625 -2.055,2.0125 -2.055,3.51875 l 0,2.05375 c 0,1.6675 0.80875,3.14875 2.055,4.0725 l 0,1.45625 c 0,0.025 -0.015,0.0475 -0.0375,0.0588 l -2.405,1.2025 c -1.02875,0.515 -1.6675,1.5475 -1.6675,2.6975 l 0,2.84 c 0,0.53125 0.43125,0.96 0.96125,0.96 0.53125,0 0.96125,-0.42875 0.96125,-0.96 l 0,-2.84 c 0,-0.4175 0.2325,-0.79125 0.60375,-0.9775 l 1.66875,-0.835 1.52375,1.52375 c 0.375,0.37625 0.875,0.5825 1.40625,0.5825 0.53125,0 1.03,-0.2075 1.40625,-0.5825 l 1.5225,-1.52375 1.66875,0.835 c 0.3725,0.18625 0.605,0.56 0.605,0.9775 l 0,2.84 c 0,0.53125 0.43,0.96 0.96125,0.96 0.53,0 0.96,-0.42875 0.96,-0.96 l 0,-2.84 c 0,-1.15 -0.6375,-2.1825 -1.66625,-2.6975 l -2.405,-1.2025 c -0.0238,-0.0125 -0.0375,-0.0337 -0.0375,-0.0588 l 0,-1.45625 c 1.24625,-0.92375 2.055,-2.405 2.055,-4.0725 l 0,-2.05375 c 0,-1.5075 -0.82875,-2.82375 -2.055,-3.51875 l 0,-1.375 c 0,-0.4175 0.2325,-0.7925 0.605,-0.9775 l 1.66875,-0.835 1.5225,1.5225 c 0.3875,0.3875 0.8975,0.58125 1.40625,0.58125 0.51,0 1.01875,-0.19375 1.40625,-0.58125 l 1.5225,-1.5225 1.66875,0.835 c 0.3725,0.185 0.605,0.56 0.605,0.9775 l 0,1.375 c -1.225,0.695 -2.055,2.01125 -2.055,3.51875 l 0,2.05375 c 0,1.6675 0.80875,3.14875 2.055,4.0725 l 0,1.45625 c 0,0.025 -0.0137,0.0475 -0.0362,0.0588 l -2.40625,1.2025 c -1.0275,0.515 -1.66625,1.5475 -1.66625,2.6975 l 0,2.84 c 0,0.53125 0.43,0.96 0.96,0.96 0.53125,0 0.96125,-0.42875 0.96125,-0.96 l 0,-2.84 c 0,-0.4175 0.2325,-0.79125 0.605,-0.9775 l 1.66875,-0.835 1.52375,1.52375 c 0.3875,0.38625 0.89625,0.58125 1.40625,0.58125 0.50875,0 1.0175,-0.195 1.405,-0.58125 l 1.52375,-1.52375 1.66875,0.835 c 0.3725,0.18625 0.60375,0.56 0.60375,0.9775 l 0,2.84 c 0,0.53125 0.43,0.96 0.96125,0.96 0.53125,0 0.96125,-0.42875 0.96125,-0.96 l 0,-2.84 c 0,-1.15 -0.63875,-2.1825 -1.6675,-2.6975"
       style="fill:#625e59;fill-opacity:1;fill-rule:nonzero;stroke:none"
       id="path9954-9-2" />
  </g>
</svg>
