<?xml version="1.0" encoding="UTF-8" standalone="no"?>
<svg
   xmlns:dc="http://purl.org/dc/elements/1.1/"
   xmlns:cc="http://creativecommons.org/ns#"
   xmlns:rdf="http://www.w3.org/1999/02/22-rdf-syntax-ns#"
   xmlns:svg="http://www.w3.org/2000/svg"
   xmlns="http://www.w3.org/2000/svg"
   version="1.1"
   id="svg74732"
   viewBox="0 0 58.125874 58.127205"
   height="16.404789mm"
   width="16.404413mm">
  <defs
     id="defs74734" />
  <metadata
     id="metadata74737">
    <rdf:RDF>
      <cc:Work
         rdf:about="">
        <dc:format>image/svg+xml</dc:format>
        <dc:type
           rdf:resource="http://purl.org/dc/dcmitype/StillImage" />
        <dc:title></dc:title>
      </cc:Work>
    </rdf:RDF>
  </metadata>
  <g
     transform="translate(2029.0629,673.84425)"
     id="layer1">
    <path
       d="m -2016.3526,-633.89505 c -0.013,-0.985 -0.83,-1.80375 -1.81,-1.7975 -1.0112,0 -1.8312,0.84375 -1.8125,1.855 0.015,0.9775 0.855,1.78375 1.8388,1.7675 0.9837,-0.015 1.7911,-0.84125 1.7837,-1.825 m 34.5163,-8.15375 c -0.9838,0 -1.8025,0.81625 -1.8088,1.8 -0.013,0.9875 0.8,1.80875 1.7863,1.82125 1.005,0.0137 1.8437,-0.82125 1.835,-1.8275 -0.013,-0.98625 -0.825,-1.79375 -1.8125,-1.79375 m 1.8087,-9.09375 c 0.9838,0 1.8074,-0.80125 1.8213,-1.78625 0.014,-1.00625 -0.82,-1.84375 -1.8275,-1.835 -0.9838,0.0125 -1.7975,0.83 -1.795,1.81375 0,0.98625 0.815,1.8025 1.8012,1.8075 m -47.0487,3.63625 c -1.4638,13.97875 8.0812,25.2475 17.9886,28.31125 0,-3.41 0.034,-6.81375 -0.013,-10.21875 -0.029,-1.96125 -1.4825,-3.4025 -3.4451,-3.54 -0.5462,-0.0375 -1.0974,0 -1.645,-0.0275 -0.3325,-0.0163 -0.4812,0.0937 -0.6087,0.4175 -0.6487,1.66 -2.3475,2.57375 -4.0675,2.23125 -1.6912,-0.3375 -2.9388,-1.85125 -2.93,-3.555 0.012,-1.72 1.245,-3.21 2.9413,-3.54625 1.7199,-0.34125 3.4087,0.57375 4.0587,2.2425 0.1312,0.3325 0.2925,0.42375 0.6162,0.40625 0.4538,-0.0213 0.9188,-0.0663 1.3588,0.0125 0.83,0.14 1.7125,0.22 2.4563,0.5725 2.0962,0.99625 3.0774,2.7725 3.0937,5.06625 0.021,3.3675 0,6.73375 0.016,10.10125 0,0.195 0.1337,0.53 0.2625,0.56125 1.0912,0.27375 2.1987,0.49125 3.3602,0.7375 l 0,-0.70875 c 0,-8.34125 0,-16.68375 0,-25.02625 0,-2.53625 -1.484,-4.02875 -4.0075,-4.03 -6.2625,0 -12.5237,0 -18.785,0 l -0.65,0 z m 36.1587,28.3725 c 10.2225,-3.555 18.215,-13.525 18.1525,-25.78375 -0.064,-12.35625 -8.175,-21.42625 -16.295,-24.74 -0.014,0.0538 -0.038,0.105 -0.038,0.15625 0,4.01125 -0.023,8.0225 0.013,12.03375 0.013,1.725 1.155,3.15875 2.7925,3.47375 0.8938,0.17125 1.8288,0.1225 2.7,0.17125 0.9663,-2.15875 2.4375,-3.05 4.2925,-2.67875 1.6675,0.33375 2.89,1.8075 2.9125,3.51125 0.021,1.66375 -1.1525,3.16 -2.79,3.55625 -1.8475,0.44875 -3.325,-0.42 -4.4112,-2.6125 -0.5888,0 -1.1925,0.0125 -1.7975,0 -2.925,-0.0612 -5.1588,-1.98625 -5.445,-4.8875 -0.1688,-1.705 -0.076,-3.43875 -0.081,-5.16 -0.012,-2.62875 0,-5.26 0,-7.88875 0,-0.2675 0.021,-0.48 -0.3412,-0.59875 -2.075,-0.67875 -4.1938,-1.14125 -6.3675,-1.32875 -4.8113,-0.4175 -9.4188,0.40125 -13.8025,2.4175 -3.0738,1.41125 -5.7838,3.35375 -8.135,5.785 -2.6225,2.71125 -4.6325,5.83125 -5.925,9.37625 -0.5825,1.60375 -0.9775,3.2775 -1.4838,5.00875 l 0.7913,0 c 6.1875,0 12.3737,0 18.5612,0 0.935,0 1.8475,0.11875 2.6938,0.5525 2.1375,1.0975 3.11,2.89 3.11,5.25 0,8.4 0,16.80125 0,25.2025 l 0,0.71875 3.6012,0 c 0.098,-0.7475 -0.2112,-1.73125 0.855,-1.81875 1.115,-0.0925 0.9575,0.90375 1.03,1.66125 1.0213,-0.20875 1.9788,-0.4325 2.9463,-0.59125 0.5387,-0.0888 0.665,-0.33125 0.6625,-0.8625 -0.021,-5.41 -0.017,-10.8225 -0.013,-16.23375 0,-2.755 1.5387,-4.84 4.1612,-5.50875 0.8263,-0.21 1.7238,-0.16625 2.59,-0.185 0.4175,-0.0125 0.6513,-0.075 0.83,-0.52125 0.6213,-1.55375 2.2675,-2.4325 3.905,-2.1575 1.6664,0.28125 2.8988,1.64625 3.0289,3.355 0.12,1.57875 -0.9226,3.135 -2.4389,3.635 -1.6412,0.5425 -3.4812,0 -4.2125,-1.52 -0.4537,-0.94 -1.0261,-1.075 -1.8686,-0.9875 -0.056,0 -0.1125,0 -0.1701,0 -2.5238,0 -4.0074,1.4975 -4.0088,4.03375 0,3.5575 0,7.11375 0,10.67125 l 0,5.4925 z m 19.98,-25.5975 c -0.096,16.09125 -13.185,29.1075 -29.1712,29.01375 -16.025,-0.095 -29.0313,-13.20125 -28.9538,-29.175 0.079,-16.03125 13.1838,-29.04 29.1675,-28.95125 16.0063,0.09 29.0538,13.2075 28.9575,29.1125"
       style="fill:#625e59;fill-opacity:1;fill-rule:nonzero;stroke:none"
       id="path9990-3-1" />
    <path
       d="m -2005.4543,-658.38118 c 0.013,-0.98375 -0.7987,-1.81625 -1.7762,-1.83625 -1.0075,-0.0187 -1.85,0.81125 -1.8475,1.8175 0,0.98 0.82,1.7975 1.805,1.80875 0.9775,0.0125 1.8125,-0.81125 1.8187,-1.79 m 1.7575,-0.8775 c 0.8063,0 1.6275,-0.0812 2.4288,0.015 2.9012,0.34875 4.88,2.52 4.89,5.445 0.029,8.03875 0.012,16.0775 0.012,24.1175 0,0.70375 -0.375,1.135 -0.9337,1.115 -0.5538,-0.02 -0.88,-0.44375 -0.88,-1.17 0,-7.945 0,-15.89 0,-23.83375 0,-1.5725 -0.6136,-2.7825 -2.0275,-3.53125 -1.0775,-0.57 -2.2525,-0.36875 -3.3975,-0.37375 -0.091,0 -0.21,0.22875 -0.2686,0.37 -0.7825,1.90375 -2.8189,2.8 -4.7225,2.07375 -1.7914,-0.68375 -2.7075,-2.69875 -2.0775,-4.575 0.465,-1.38875 1.8011,-2.365 3.3136,-2.425 1.4389,-0.0563 2.84,0.83875 3.4214,2.18625 0.075,0.1725 0.1436,0.34375 0.2436,0.58625"
       style="fill:#625e59;fill-opacity:1;fill-rule:nonzero;stroke:none"
       id="path9994-9-6" />
    <path
       d="m -1996.3771,-625.72605 c 0.012,0.47625 -0.4012,0.9075 -0.88,0.91625 -0.4762,0.0125 -0.91,-0.40375 -0.92,-0.87875 -0.012,-0.48 0.3963,-0.9025 0.8813,-0.915 0.4787,-0.0125 0.9075,0.39625 0.9187,0.8775"
       style="fill:#625e59;fill-opacity:1;fill-rule:nonzero;stroke:none"
       id="path9998-6-6" />
    <path
       d="m -1996.3771,-622.0823 c 0,0.48 -0.4237,0.91 -0.9037,0.90625 -0.4825,0 -0.9038,-0.43625 -0.8925,-0.91625 0.012,-0.46375 0.4075,-0.85875 0.8762,-0.87375 0.4838,-0.0163 0.9163,0.39875 0.92,0.88375"
       style="fill:#625e59;fill-opacity:1;fill-rule:nonzero;stroke:none"
       id="path10002-2-5" />
  </g>
</svg>
