<?xml version="1.0" encoding="UTF-8" standalone="no"?>
<svg
   xmlns:dc="http://purl.org/dc/elements/1.1/"
   xmlns:cc="http://creativecommons.org/ns#"
   xmlns:rdf="http://www.w3.org/1999/02/22-rdf-syntax-ns#"
   xmlns:svg="http://www.w3.org/2000/svg"
   xmlns="http://www.w3.org/2000/svg"
   version="1.1"
   id="svg71731"
   viewBox="0 0 405.36434 147.20597"
   height="41.544796mm"
   width="114.40282mm">
  <defs
     id="defs71733" />
  <metadata
     id="metadata71736">
    <rdf:RDF>
      <cc:Work
         rdf:about="">
        <dc:format>image/svg+xml</dc:format>
        <dc:type
           rdf:resource="http://purl.org/dc/dcmitype/StillImage" />
        <dc:title></dc:title>
      </cc:Work>
    </rdf:RDF>
  </metadata>
  <g
     transform="translate(748.39646,118.38363)"
     id="layer1">
    <path
       d="m -743.87128,-2.9849174 c -3.1143,-3.09013 -4.54902,-7.4493796 -4.52488,-12.4674996 l 0,-51.967001 9.38773,0 0,13.6815 17.67871,0 0,9.180875 -17.67871,0 0,29.501246 c 0.0241,2.597 0.68287,4.23175 1.87961,5.4974996 1.23124,1.24838 2.69699,1.8795 5.10772,1.90375 l 10.69138,0 0,6.48725 0,2.697 -9.85331,0 -0.0827,0 c -5.11117,0 -9.51188,-1.41412002 -12.60548,-4.51462"
       style="fill:#625e59;fill-opacity:1;fill-rule:nonzero;stroke:none"
       id="path9814-9" />
    <path
       d="m -676.79426,-39.815668 c -3.62471,4.03175 -5.33189,8.435875 -5.35259,13.712625 0.0208,5.356 1.72443,9.777376 5.30432,13.757376 3.56263,3.8937496 7.66675,5.7112496 13.04348,5.7457496 5.28362,-0.035 9.37738,-1.859 12.9952,-5.7939996 3.62128,-4.02825 5.32844,-8.439376 5.35259,-13.709126 -0.0241,-5.3595 -1.72786,-9.780875 -5.30086,-13.764375 -3.56609,-3.89025 -7.6771,-5.704375 -13.04693,-5.74575 -5.28706,0.04125 -9.38082,1.859 -12.99521,5.7975 m 12.99521,42.4000006 c -7.73573,0.035 -14.58167,-2.88325002 -19.89287,-8.4635 -5.32844,-5.5249996 -8.08406,-12.4571296 -8.05648,-20.2238756 -0.0276,-7.77025 2.72804,-14.702375 8.05648,-20.2275 5.3112,-5.583625 12.15714,-8.494375 19.89287,-8.463375 7.73573,-0.035 14.5989,2.907375 19.9377,8.51175 5.35949,5.556 8.14269,12.464 8.1151,20.179125 0.0276,7.766746 -2.72457,14.698876 -8.05992,20.2238756 -5.28706,5.55949998 -12.12265,8.4635 -19.87218,8.4635 l -0.12075,0 z"
       style="fill:#625e59;fill-opacity:1;fill-rule:nonzero;stroke:none"
       id="path9818-0" />
    <path
       d="m -619.12391,-39.815668 c -3.62128,4.035125 -5.32845,8.439375 -5.35259,13.712625 0.0241,5.356 1.72441,9.780876 5.3043,13.760746 3.5661,3.8937496 7.66676,5.7113796 13.04694,5.7423796 5.28361,-0.035 9.37737,-1.852 12.99175,-5.7939996 3.62127,-4.02825 5.3319,-8.439376 5.34914,-13.709126 -0.0172,-5.3595 -1.72442,-9.780875 -5.2974,-13.764375 -3.56955,-3.89375 -7.67022,-5.704375 -13.04349,-5.738875 -5.29051,0.035 -9.38428,1.852125 -12.99865,5.790625 m 12.99865,42.4000006 c -7.73918,0.035 -14.58511,-2.88325002 -19.89286,-8.4635 -5.32845,-5.5249996 -8.08407,-12.4606296 -8.05648,-20.2238756 -0.0276,-7.763375 2.72803,-14.699 8.05648,-20.2275 5.30775,-5.583625 12.15368,-8.494375 19.89286,-8.463375 7.73572,-0.035 14.59891,2.907375 19.93425,8.51175 5.36294,5.5595 8.14615,12.4675 8.122,20.179125 0.0241,7.770126 -2.73493,14.698876 -8.06336,20.2273756 -5.29052,5.55599998 -12.1261,8.46 -19.86873,8.46 l -0.12412,0 z"
       style="fill:#625e59;fill-opacity:1;fill-rule:nonzero;stroke:none"
       id="path9822-3" />
    <path
       d="m -518.35834,1.5283326 0,-9.18425 25.06612,0 c 3.84545,0 6.33206,-0.7415 7.54605,-1.70338 1.3347,-1.0833696 1.84857,-2.0972496 1.9003,-4.0144996 -0.0793,-3.17675 -1.65889,-5.321496 -7.08735,-7.321871 -5.49744,-1.46225 -10.96039,-2.921125 -16.3854,-4.38 l -0.1414,-0.04125 -0.12413,-0.045 c -6.63555,-2.403875 -10.89141,-7.415 -10.77415,-13.7815 -0.031,-4.0145 1.38988,-7.718875 4.1248,-10.50175 2.8108,-2.928375 6.808,-4.321375 11.30528,-4.29375 l 25.11095,0 0,9.18075 -24.7971,0 c -1.75892,0.035 -3.05568,0.49325 -4.32139,1.531375 -1.06225,0.927625 -1.57268,1.958875 -1.61406,3.983375 0.0586,2.44175 1.3278,4.18 6.61141,5.818125 5.70782,1.607125 11.32252,3.145375 16.851,4.6215 l 0.1621,0.04125 0.16554,0.065 c 6.68728,2.57975 10.83968,7.884 10.72932,14.491996 0.0517,4.8766296 -1.87617,9.2014996 -5.61125,11.8226296 -3.67991,2.61411998 -8.5876,3.7075 -14.60581,3.71087 l -24.11079,0 z"
       style="fill:#625e59;fill-opacity:1;fill-rule:nonzero;stroke:none"
       id="path9826-4" />
    <path
       d="m -535.27762,-12.395047 c -3.61438,3.9419996 -7.70469,5.7633796 -12.9883,5.7941296 -5.38018,-0.035 -9.48084,-1.84863 -13.05038,-5.7388796 -3.57645,-3.98312 -5.28016,-8.404496 -5.30086,-13.763996 0.0207,-5.27325 1.72786,-9.677375 5.35259,-13.7125 3.61437,-3.935125 7.70813,-5.759625 12.99865,-5.790625 5.37328,0.035 9.4705,1.845125 13.04348,5.738875 3.57299,3.983375 5.27672,8.40825 5.2974,13.76425 -0.0206,5.27325 -1.72786,9.680876 -5.35258,13.709126 m 6.94595,-33.884751 c -5.33534,-5.607875 -12.19852,-8.54625 -19.93425,-8.51175 -7.73918,-0.035 -14.58512,2.876375 -19.89287,8.46 -5.3319,5.531875 -8.08406,12.464125 -8.05992,20.227375 l 0,54.926126 9.60155,0 0,-33.2295004 c 5.06634,4.60424998 11.33631,7.02187 18.35124,6.99075 l 0.12075,0 c 7.74262,0 14.57821,-2.90388002 19.86872,-8.4565 5.33189,-5.5318796 8.08751,-12.4606296 8.06681,-20.2308756 0.0207,-7.708125 -2.76251,-14.619625 -8.122,-20.175625"
       style="fill:#625e59;fill-opacity:1;fill-rule:nonzero;stroke:none"
       id="path9830-8" />
    <path
       d="m -719.09453,-1.3987974 0,-35.8984956 c 0,-3.087125 0.84497,-6.00825 2.50041,-8.53275 1.62785,-2.47975 3.84545,-4.459 6.52864,-5.8355 2.6625,-1.376 5.56296,-2.072375 8.5738,-2.06925 l 11.964,0 0,9.31875 -11.58808,0 c -2.16242,0 -3.71785,0.469375 -4.9008,1.266125 -1.3071,0.886 -2.17966,1.94125 -2.7832,3.334625 -0.64839,1.50025 -0.96912,3.08325 -0.96912,4.83525 l 0,31.3981256 0,5.11125 -9.32565,-0.035 0,-2.90363 z"
       style="fill:#625e59;fill-opacity:1;fill-rule:nonzero;stroke:none"
       id="path9834-2" />
    <path
       d="m -455.10054,-7.0634174 c -1.80028,1.80025 -4.718,1.79675 -6.5183,0 -1.80028,-1.80038 -1.80028,-4.7179996 0,-6.5183796 1.8003,-1.80025 4.72145,-1.80025 6.5183,0 1.80029,1.79688 1.80029,4.7179996 0,6.5183796 m 102.68899,-64.2931256 -44.91415,-44.913877 c -2.81769,-2.81762 -7.43222,-2.81762 -10.25337,0 l -57.52998,57.533127 c -2.82115,2.817625 -5.13531,8.3875 -5.14221,12.370875 l -0.0759,40.7760006 c -0.007,3.9865 3.2488,7.2425 7.23565,7.23562 l 40.7721,-0.0763 c 3.98685,0 9.55327,-2.31762002 12.37442,-5.13875 l 57.53342,-57.5334956 c 2.8177,-2.821125 2.8177,-7.43225 0,-10.253375"
       style="fill:#625e59;fill-opacity:1;fill-rule:nonzero;stroke:none"
       id="path9838-7" />
    <path
       d="m -455.10054,-7.0634174 c -1.80028,1.80025 -4.718,1.79675 -6.5183,0 -1.80028,-1.80038 -1.80028,-4.7179996 0,-6.5183796 1.8003,-1.80025 4.72145,-1.80025 6.5183,0 1.80029,1.79688 1.80029,4.7179996 0,6.5183796 m 102.68899,-64.2931256 -44.91415,-44.913877 c -2.81769,-2.81762 -7.43222,-2.81762 -10.25337,0 l -57.52998,57.533127 c -2.82115,2.817625 -5.13531,8.3875 -5.14221,12.370875 l -0.0759,40.7760006 c -0.007,3.9865 3.2488,7.2425 7.23565,7.23562 l 40.7721,-0.0763 c 3.98685,0 9.55327,-2.31762002 12.37442,-5.13875 l 57.53342,-57.5334956 c 2.8177,-2.821125 2.8177,-7.43225 0,-10.253375"
       style="fill:#625e59;fill-opacity:1;fill-rule:nonzero;stroke:none"
       id="path9842-9" />
    <path
       d="m -379.12037,-101.86079 -2.9591,-4.02138 c -0.92429,-1.25887 -2.2038,-2.07625 -3.59024,-2.5245 l 6.54934,6.54588 z"
       style="fill:#625e59;fill-opacity:1;fill-rule:nonzero;stroke:none"
       id="path9846-0" />
    <path
       d="m -344.43477,-54.724293 -4.65938,-6.328625 c -0.40006,0.651875 -0.85531,1.279625 -1.42092,1.845125 l -57.53343,57.5368756 c -3.31432,3.31437 -9.58085,5.91475 -14.26781,5.92512 l -19.29623,0.035 17.09242,2.56938 c 3.94546,0.59325 9.79468,-0.85525 13.009,-3.21775 l 65.53471,-48.2250006 c 3.21086,-2.3625 3.90409,-6.92525 1.54164,-10.136125"
       style="fill:#625e59;fill-opacity:1;fill-rule:nonzero;stroke:none"
       id="path9850-6" />
  </g>
</svg>
