<?xml version="1.0" standalone="no"?>
<!DOCTYPE svg PUBLIC "-//W3C//DTD SVG 20010904//EN"
 "http://www.w3.org/TR/2001/REC-SVG-20010904/DTD/svg10.dtd">
<svg version="1.0" xmlns="http://www.w3.org/2000/svg"
 width="1000.000000pt" height="1000.000000pt" viewBox="0 0 1000.000000 1000.000000"
 preserveAspectRatio="xMidYMid meet">
<metadata>
Created by potrace 1.11, written by Peter Selinger 2001-2013
</metadata>
<g transform="translate(0.000000,1000.000000) scale(0.100000,-0.100000)"
fill="#000000" stroke="none">
<path d="M5196 9904 c-32 -8 -89 -28 -125 -46 -62 -29 -210 -175 -2403 -2367
-2088 -2088 -2342 -2345 -2393 -2424 -116 -180 -204 -390 -247 -591 l-21 -101
-1 -1715 -1 -1715 23 -67 c24 -70 79 -161 130 -215 48 -52 155 -119 228 -144
l69 -24 1715 0 1715 1 101 22 c251 54 495 167 679 313 92 73 4630 4617 4668
4674 126 191 128 436 5 626 -49 76 -3616 3647 -3692 3697 -128 83 -301 112
-450 76z m-4103 -8150 c167 -81 244 -262 186 -437 -69 -207 -304 -306 -496
-208 -292 147 -258 565 53 665 74 24 186 15 257 -20z"/>
<path d="M6900 8885 c135 -135 247 -245 249 -245 2 0 -8 16 -23 35 -14 19 -38
52 -53 73 -16 20 -30 39 -33 42 -3 3 -21 28 -40 55 -19 28 -39 55 -45 61 -5 7
-26 32 -45 57 -43 55 -118 112 -188 143 -29 13 -56 24 -59 24 -4 0 103 -110
237 -245z"/>
<path d="M9489 5363 c-43 -63 -4636 -4656 -4714 -4715 -210 -156 -493 -282
-766 -339 -101 -21 -129 -21 -884 -24 -429 -2 -789 -4 -800 -5 -23 -2 93 -25
180 -35 32 -3 62 -8 65 -10 3 -1 32 -6 65 -9 33 -4 67 -9 75 -11 18 -5 79 -14
136 -21 23 -3 50 -6 60 -8 17 -3 62 -10 137 -22 15 -2 39 -6 55 -8 75 -13 380
-59 402 -61 14 -2 48 -7 75 -11 110 -17 375 -8 465 16 19 5 49 12 65 14 168
30 419 142 555 248 19 15 62 47 95 71 169 123 528 387 587 432 37 27 123 90
190 140 123 89 248 181 453 332 61 45 151 111 200 147 50 36 95 69 100 73 6 5
35 27 65 49 30 22 217 160 415 305 198 146 524 386 725 534 479 352 592 435
714 525 55 41 169 125 251 185 83 60 155 113 160 118 6 4 68 50 139 102 71 52
140 103 155 114 23 17 251 185 306 225 11 8 49 36 85 63 36 27 165 121 287
211 122 89 242 186 267 214 98 111 149 259 141 411 -7 145 -42 223 -183 412
-42 57 -86 115 -97 130 -11 16 -55 75 -97 133 -43 57 -78 109 -78 113 0 22
-22 5 -51 -38z"/>
</g>
</svg>
